# xmcd
#
# Track frame offsets: 
#        150
#        24878
#        47901
#        71335
#        92394
#        119981
#        159352
#        181684
#        209470
#        247598
#        281837
#
# Disc length: 4045 seconds
#
# Revision: 0
# Processed by: cddbd v1.4PL0 Copyright (c) Steve Scherf et al.
# Submitted via: ExactAudioCopy v0.90a11
#
DISCID=8c0fcb0b
DTITLE=The Errol Previde Quartet - Offerings
DYEAR=1900
DGENRE=
TTITLE0=Carrie's Song
TTITLE1=Offerings
TTITLE2=Butterfly
TTITLE3=Airport Rendezvous
TTITLE4=Movin
TTITLE5=I Love My Man
TTITLE6=Funky Style
TTITLE7=Ode to Chopper Chuck
TTITLE8=Purgatory
TTITLE9=Untied
TTITLE10=Julie
EXTD=
EXTT0=
EXTT1=
EXTT2=
EXTT3=
EXTT4=
EXTT5=
EXTT6=
EXTT7=
EXTT8=
EXTT9=
EXTT10=
PLAYORDER=
